<svg xmlns="http://www.w3.org/2000/svg" xmlns:xlink="http://www.w3.org/1999/xlink" width="500" zoomAndPan="magnify" viewBox="0 0 375 374.999991" height="500" preserveAspectRatio="xMidYMid meet" version="1.0"><defs><g/><clipPath id="2e28f96051"><rect x="0" width="375" y="0" height="375"/></clipPath></defs><g transform="matrix(1, 0, 0, 1, 0, 0)"><g clip-path="url(#2e28f96051)"><g fill="#8c52ff" fill-opacity="1"><g transform="translate(-11.364915, 309.321581)"><g><path d="M 150.1875 4.984375 C 127.09375 4.984375 106.367188 -0.273438 88.015625 -10.796875 C 69.671875 -21.316406 55.195312 -36.816406 44.59375 -57.296875 C 34 -77.785156 28.703125 -102.265625 28.703125 -130.734375 C 28.703125 -159.359375 34 -183.910156 44.59375 -204.390625 C 55.195312 -224.878906 69.671875 -240.382812 88.015625 -250.90625 C 106.367188 -261.425781 127.09375 -266.6875 150.1875 -266.6875 C 177.875 -266.6875 199.898438 -261.46875 216.265625 -251.03125 C 232.640625 -240.59375 244.460938 -226.671875 251.734375 -209.265625 L 225.40625 -190.28125 L 220.65625 -190.28125 C 213.539062 -204.675781 204.40625 -215.234375 193.25 -221.953125 C 182.101562 -228.679688 167.75 -232.046875 150.1875 -232.046875 C 134.050781 -232.046875 119.894531 -228.25 107.71875 -220.65625 C 95.539062 -213.0625 86.085938 -201.671875 79.359375 -186.484375 C 72.640625 -171.304688 69.28125 -152.722656 69.28125 -130.734375 C 69.28125 -108.898438 72.679688 -90.429688 79.484375 -75.328125 C 86.285156 -60.222656 95.734375 -48.832031 107.828125 -41.15625 C 119.929688 -33.488281 134.050781 -29.65625 150.1875 -29.65625 C 168.375 -29.65625 183.4375 -33.765625 195.375 -41.984375 C 207.320312 -50.210938 216.695312 -63.1875 223.5 -80.90625 L 228.484375 -80.90625 L 253.875 -65.953125 C 247.070312 -43.972656 234.929688 -26.65625 217.453125 -14 C 199.972656 -1.34375 177.550781 4.984375 150.1875 4.984375 Z M 150.1875 4.984375 "/></g></g><g transform="translate(258.408728, 309.321581)"><g><path d="M 63.828125 2.375 C 54.804688 2.375 47.6875 -0.15625 42.46875 -5.21875 C 37.25 -10.28125 34.640625 -17.003906 34.640625 -25.390625 C 34.640625 -33.609375 37.25 -40.367188 42.46875 -45.671875 C 47.6875 -50.972656 54.804688 -53.625 63.828125 -53.625 C 73.003906 -53.625 80.203125 -51.09375 85.421875 -46.03125 C 90.640625 -40.96875 93.25 -34.242188 93.25 -25.859375 C 93.25 -17.472656 90.597656 -10.671875 85.296875 -5.453125 C 79.992188 -0.234375 72.835938 2.375 63.828125 2.375 Z M 63.828125 2.375 "/></g></g></g></g></g></svg>